<svg width="583" height="111" viewBox="0 0 583 111" fill="none" xmlns="http://www.w3.org/2000/svg">
<path d="M375.191 29.7182C370.634 24.4506 363.975 21.2901 356.264 21.2901C340.141 21.2901 328.575 33.23 328.575 49.0328C328.575 64.8356 340.491 77.4778 356.264 77.4778C363.975 77.4778 370.634 74.3173 375.892 69.0497V76.7755L384.304 73.2638V25.8553L375.892 22.3436V30.0694H375.191V29.7182ZM356.264 69.4008C345.048 69.4008 336.636 60.9727 336.636 49.384C336.636 38.1464 345.048 29.7182 356.264 29.7182C369.583 29.7182 375.892 39.9023 375.892 49.384C375.892 54.6516 374.49 59.568 370.634 62.7285C366.779 67.645 361.872 69.4008 356.264 69.4008Z" fill="#9D9D9C"/>
<path d="M405.684 0.921844H397.272V77.1265H405.684V0.921844Z" fill="#9D9D9C"/>
<path d="M446.693 53.5977L442.136 64.8352L437.93 53.9489L425.663 22.6944H416.55L437.58 74.6681L427.065 98.5479H436.528L469.475 22.6944H460.012L446.693 53.5977Z" fill="#9D9D9C"/>
<path d="M498.916 29.7177C504.524 29.7177 509.782 31.8248 513.287 35.3365L514.338 36.7412L519.946 31.1224L518.895 30.0689C513.637 24.8013 506.627 21.6407 498.916 21.6407C482.443 21.6407 470.526 32.8783 470.526 49.3834C470.526 65.5374 482.443 77.1261 498.916 77.1261C506.627 77.1261 513.287 73.9656 518.895 68.698L519.946 67.6445L514.338 62.0257L513.287 63.0792C509.782 66.5909 504.524 68.698 499.267 68.698C489.453 68.698 479.639 62.3769 479.639 49.0323C479.639 35.6877 489.103 29.7177 498.916 29.7177Z" fill="#9D9D9C"/>
<path d="M551.14 23.7481C536.069 23.7481 523.802 35.688 523.802 50.4373C523.802 65.1866 536.069 77.1265 551.14 77.1265C562.356 77.1265 572.17 70.4542 576.376 60.2702L577.428 58.1631H569.016L568.665 59.2166C565.16 65.8889 558.501 70.103 551.14 70.103C540.275 70.103 531.513 61.3237 531.513 50.4373C531.513 39.5509 540.275 30.7716 551.14 30.7716C560.253 30.7716 568.665 37.4439 570.768 46.9256H540.626L537.121 54.3002H578.479V52.8955C578.479 51.842 578.479 51.4908 578.479 50.4373C578.479 36.0392 566.212 23.7481 551.14 23.7481Z" fill="#9D9D9C"/>
<path d="M288.267 39.1992C291.772 32.8781 298.432 30.4199 305.091 30.4199C310.699 30.4199 315.957 32.5269 319.462 36.0387L320.513 37.0922L326.121 31.4734L325.07 30.0687C319.812 24.8011 312.802 21.6405 305.091 21.6405C298.432 21.6405 292.824 23.7476 288.267 26.9081V39.1992Z" fill="#9D9D9C"/>
<path d="M319.462 63.7817C315.957 67.2935 310.7 69.4005 305.442 69.4005C298.783 69.4005 292.123 66.9423 288.618 60.6212V72.5611C293.175 75.7216 298.783 77.8287 305.442 77.8287C313.153 77.8287 319.813 74.6681 325.421 69.4005L326.472 68.347L320.864 62.7282L319.462 63.7817Z" fill="#9D9D9C"/>
<path d="M47.8258 29.3667C42.9189 24.0991 36.2594 20.9386 28.198 20.9386C12.7761 20.9386 0.859131 32.8785 0.859131 49.0324C0.859131 65.1864 12.7761 77.4775 28.5485 77.4775C36.2594 77.4775 42.9189 74.3169 48.1763 69.0493V76.7751L56.5883 73.2634V25.1526L47.8258 21.6409V29.3667ZM28.5485 69.0493C17.3325 69.0493 8.92058 60.6212 8.92058 49.0324C8.92058 37.7949 17.3325 29.3667 28.5485 29.3667C41.8674 29.3667 48.1763 39.5508 48.1763 49.0324C48.1763 54.3 46.7743 59.2165 42.9189 62.377C40.1149 66.9423 34.8574 69.0493 28.5485 69.0493Z" fill="#D60E4D"/>
<path d="M273.897 29.3667C269.34 24.0991 262.681 20.9386 254.269 20.9386C238.146 20.9386 226.579 32.8785 226.579 48.6813C226.579 64.4841 238.496 77.1263 254.269 77.1263C261.98 77.1263 268.639 73.9658 273.897 68.6981V76.424L282.309 72.9122V25.1526L273.897 21.6409V29.3667ZM254.269 69.0493C243.053 69.0493 234.641 60.6212 234.641 49.0324C234.641 37.7949 243.053 29.3667 254.269 29.3667C267.588 29.3667 273.897 39.5508 273.897 49.0324C273.897 54.3 272.495 59.2165 268.639 62.377C265.485 66.9423 260.227 69.0493 254.269 69.0493Z" fill="#D60E4D"/>
<path d="M104.256 69.0495C111.616 64.4842 116.173 56.0561 116.173 47.2767C116.173 39.9021 114.07 34.2833 110.565 29.7181L115.822 23.3969L109.864 18.4805L104.606 24.8016C100.751 21.9923 95.4934 20.5876 90.5864 20.5876C75.1645 20.5876 65.0001 31.4739 65.0001 47.2767C65.0001 62.7284 75.8655 73.9659 90.5864 73.9659C99.3488 73.9659 108.111 77.4777 108.111 88.0129C108.111 101.006 94.7924 102.06 90.5864 102.06C82.1745 102.06 73.0615 98.5481 73.0615 88.0129V86.6082H64.6496V88.0129C64.6496 101.357 74.814 110.137 90.9369 110.137C107.06 110.137 117.224 101.709 117.224 88.0129C116.173 79.2335 111.967 73.2636 104.256 69.0495ZM90.5864 29.3669C101.452 29.3669 108.111 36.7415 108.111 47.2767C108.111 57.1096 99.6993 65.1866 90.5864 65.1866C79.3705 65.1866 73.0615 56.0561 73.0615 47.2767C73.0615 33.9322 81.824 29.3669 90.5864 29.3669Z" fill="#D60E4D"/>
<path d="M150.171 20.9386C134.048 20.9386 122.482 32.8785 122.482 49.3836C122.482 65.8888 133.698 77.1263 150.171 77.1263C166.644 77.1263 177.86 65.8888 177.86 49.3836C177.86 32.8785 166.294 20.9386 150.171 20.9386ZM150.171 69.0493C138.955 69.0493 130.543 60.6212 130.543 49.3836C130.543 37.4437 138.955 29.3667 150.171 29.3667C161.387 29.3667 169.799 38.1461 169.799 49.3836C169.799 60.6212 161.387 69.0493 150.171 69.0493Z" fill="#D60E4D"/>
<path d="M211.858 20.9386C205.549 20.9386 199.942 23.0456 196.437 27.2597V21.6409H188.025V76.424H196.437V44.8184C196.437 36.039 203.096 29.3667 211.858 29.3667C215.013 29.3667 217.466 29.7179 219.569 31.4738L221.322 32.5273L225.177 25.1526L223.775 24.0991C219.569 21.9921 216.064 20.9386 211.858 20.9386Z" fill="#D60E4D"/>
<path d="M578.479 7.5938L564.81 22.6943L568.665 26.206L582.685 11.8079L578.479 7.5938Z" fill="#D60E4D"/>
<path d="M141.058 100.655C141.058 103.114 140.708 104.167 140.007 105.221C138.955 106.274 137.553 106.625 134.749 106.625C131.244 106.625 129.492 105.572 129.141 103.114H131.244C131.244 104.518 132.296 105.221 134.749 105.221C136.852 105.221 137.904 104.87 138.254 103.816C138.254 103.465 138.605 102.763 138.605 101.709V100.304C137.203 101.709 136.151 102.411 134.399 102.411C132.997 102.411 131.244 102.06 130.193 101.007C129.141 99.602 128.09 97.8461 128.09 95.7391C128.09 91.525 130.543 88.3644 134.399 88.3644C135.801 88.3644 137.553 88.7156 138.605 90.4715V88.7156H141.058V100.655ZM130.543 94.6855C130.543 97.8461 131.945 99.9531 134.749 99.9531C137.553 99.9531 138.955 97.8461 138.955 94.6855C138.955 92.5785 138.605 91.525 137.904 90.4715C137.553 90.1203 135.801 89.4179 134.749 89.4179C132.296 89.7691 130.543 91.8762 130.543 94.6855Z" fill="#9D9D9C"/>
<path d="M146.666 90.8226C148.068 88.7156 149.12 88.3644 150.872 88.3644C151.223 88.3644 151.223 88.3644 151.924 88.3644V90.4715C151.573 90.4715 150.872 90.4715 150.872 90.4715C149.47 90.4715 147.718 91.525 147.367 92.5785C147.017 93.632 147.017 93.9832 147.017 96.0902V102.763H144.563V88.7156H146.666V90.8226Z" fill="#9D9D9C"/>
<path d="M166.295 95.3878C166.295 99.953 163.841 102.762 159.635 102.762C155.429 102.762 152.976 99.6019 152.976 95.3878C152.976 90.8225 155.429 88.0131 159.635 88.0131C163.491 87.662 166.295 90.8225 166.295 95.3878ZM155.429 95.3878C155.429 98.5483 156.831 101.007 159.986 101.007C162.439 101.007 164.542 98.8995 164.542 95.3878C164.542 92.2272 163.14 89.769 159.986 89.769C156.831 89.769 155.429 91.876 155.429 95.3878Z" fill="#9D9D9C"/>
<path d="M180.664 102.061H178.561V99.9535C177.51 101.358 176.108 102.061 174.355 102.061C172.252 102.061 170.85 101.007 169.799 99.6023C169.098 98.9 169.098 98.5488 169.098 96.7929V87.6624H171.201V96.4418C171.201 97.4953 171.201 97.8465 171.551 98.5488C171.902 99.6023 172.953 99.9535 174.005 99.9535C175.056 99.9535 176.458 99.6023 177.159 98.5488C177.51 98.1976 178.211 97.1441 178.211 95.3882V87.6624H180.314V102.061H180.664Z" fill="#9D9D9C"/>
<path d="M184.17 106.625V88.0132H186.273V90.1202C187.324 88.7155 188.726 88.0132 190.829 88.0132C194.334 88.0132 197.138 91.1738 197.138 95.3878C197.138 99.9531 194.685 102.762 190.829 102.762C188.726 102.762 187.675 102.411 186.273 100.304V106.977C186.273 106.625 184.17 106.625 184.17 106.625ZM187.324 91.1738C186.974 92.2273 186.273 93.2808 186.273 94.6855C186.273 96.7925 186.623 97.8461 187.324 98.8996C187.675 99.9531 189.427 100.304 190.479 100.304C192.932 100.304 194.685 98.1972 194.685 94.6855C194.685 91.1738 193.283 89.0667 190.479 89.0667C189.427 89.7691 187.675 90.1202 187.324 91.1738Z" fill="#9D9D9C"/>
<path d="M200.994 95.7391C201.344 98.8996 203.097 101.007 205.55 101.007C207.653 101.007 208.705 99.9531 209.055 98.5484H211.509C210.457 101.709 208.354 103.114 205.2 103.114C200.994 103.114 198.54 99.9531 198.54 95.7391C198.54 91.1738 200.994 88.3644 205.2 88.3644C207.653 88.3644 210.457 89.7691 211.509 92.5785C211.859 93.632 211.859 94.6855 211.859 96.7926H200.643V95.7391H200.994ZM209.756 93.632C209.406 91.1738 207.653 89.4179 205.55 89.4179C203.097 89.4179 201.344 90.8226 201.344 93.632H209.756Z" fill="#9D9D9C"/>
<path d="M225.178 90.8226H236.043V92.9296H225.178V99.6019H237.095V101.709H222.724V82.0433H237.095V84.1503H225.178V90.8226Z" fill="#9D9D9C"/>
<path d="M242.002 82.3949V84.502C242.002 86.609 240.95 88.0137 239.548 88.7161V87.6625C240.599 87.3114 240.6 86.609 240.6 85.2043H239.197V82.7461C239.197 82.3949 242.002 82.3949 242.002 82.3949Z" fill="#9D9D9C"/>
<path d="M247.61 90.1206C248.661 88.7159 250.063 87.6624 252.166 87.6624C254.62 87.6624 256.723 89.0671 256.723 92.2277V102.061H254.62V93.2812C254.62 92.2277 254.62 91.1742 254.269 90.823C253.919 89.7695 252.867 89.7695 251.816 89.7695C250.414 89.7695 248.661 90.823 248.311 91.8765C248.311 92.2277 247.96 92.93 247.96 93.9835V102.412H245.858V88.3648H247.96C247.61 88.0136 247.61 90.1206 247.61 90.1206Z" fill="#9D9D9C"/>
<path d="M261.98 95.7391C262.331 98.8996 264.083 101.007 266.537 101.007C268.64 101.007 269.691 99.9531 270.042 98.5484H272.495C271.444 101.709 269.341 103.114 266.186 103.114C261.98 103.114 259.527 99.9531 259.527 95.7391C259.527 91.1738 261.98 88.3644 266.186 88.3644C268.64 88.3644 271.444 89.7691 272.495 92.5785C272.846 93.632 272.846 94.6855 272.846 96.7926H261.63V95.7391H261.98ZM270.743 93.632C270.392 91.1738 268.64 89.4179 266.537 89.4179C264.083 89.4179 262.331 90.8226 262.331 93.632H270.743Z" fill="#9D9D9C"/>
<path d="M277.753 90.8226C279.155 88.7156 280.206 88.3644 281.959 88.3644C282.309 88.3644 282.309 88.3644 283.01 88.3644V90.4715C282.66 90.4715 281.959 90.4715 281.959 90.4715C280.557 90.4715 278.804 91.525 278.454 92.5785C277.753 93.2808 277.753 93.632 277.753 95.7391V102.411H275.299V88.3644H277.402V90.4715H277.753V90.8226Z" fill="#9D9D9C"/>
<path d="M296.329 99.602V100.655C296.329 103.114 295.978 104.167 295.277 105.221C294.226 106.274 292.824 106.625 290.02 106.625C286.515 106.625 284.762 105.572 284.412 103.114H286.515C286.515 104.518 287.566 105.221 290.02 105.221C292.123 105.221 293.174 104.87 293.525 103.816C293.525 103.465 293.875 102.763 293.875 101.709V100.304C292.473 101.709 291.422 102.411 289.669 102.411C288.267 102.411 286.515 102.06 285.463 101.007C284.412 99.602 283.36 97.8461 283.36 95.7391C283.36 91.525 285.814 88.3644 289.669 88.3644C291.071 88.3644 292.824 88.7156 293.875 90.4715V88.7156H295.978C296.329 88.7156 296.329 99.602 296.329 99.602ZM286.164 94.6855C286.164 97.8461 287.566 99.9531 290.37 99.9531C293.174 99.9531 294.576 97.8461 294.576 94.6855C294.576 92.5785 294.226 91.525 293.525 90.4715C293.174 90.1203 291.422 89.4179 290.37 89.4179C288.267 89.7691 286.164 91.8762 286.164 94.6855Z" fill="#9D9D9C"/>
<path d="M305.091 99.6023L309.297 88.3648H311.751L305.792 103.465C304.741 105.923 303.689 106.626 302.287 106.626C301.937 106.626 301.236 106.626 300.184 106.275V104.168C300.535 104.519 301.236 104.519 301.586 104.519C302.638 104.519 302.988 104.168 303.689 103.114L304.741 101.007L299.133 87.6624H301.586L305.091 99.6023Z" fill="#9D9D9C"/>
<path d="M321.214 92.2272C321.214 91.1736 321.214 90.8225 320.864 90.8225C320.513 90.4713 319.462 89.7689 318.41 89.7689C316.307 89.7689 315.256 90.1201 315.256 91.876C315.256 92.2272 315.606 92.9295 316.307 92.9295C316.658 93.2807 317.359 93.2807 319.462 93.983C322.967 95.0366 324.719 96.0901 324.719 98.1971C324.719 100.655 322.616 102.411 319.111 102.411C314.905 102.411 312.802 100.304 312.802 97.1436H314.905C314.905 99.2506 316.307 100.304 319.111 100.304C321.214 100.304 322.616 99.2506 322.616 97.8459C322.616 97.4948 322.266 96.7924 322.266 96.4413C321.915 96.0901 321.214 96.0901 318.06 95.3877C316.658 95.0365 315.606 94.3342 314.555 93.983C314.204 93.6319 313.503 92.5783 313.503 91.5248C313.503 89.0666 315.606 87.3107 319.111 87.3107C322.266 87.3107 324.369 88.7154 324.719 91.876H321.565V92.2272H321.214Z" fill="#9D9D9C"/>
</svg>
